<svg width="195" height="42" viewBox="0 0 195 42" fill="none" xmlns="http://www.w3.org/2000/svg">
<g clip-path="url(#clip0_884_33)">
<rect width="41" height="41" rx="13.6133" fill="url(#paint0_linear_884_33)"/>
<path d="M30.8232 11.0141C28.9245 10.1415 26.8885 9.49865 24.7597 9.13045C24.7209 9.12334 24.6822 9.1411 24.6622 9.17662C24.4004 9.64309 24.1103 10.2516 23.9072 10.7299C21.6176 10.3866 19.3397 10.3866 17.097 10.7299C16.8938 10.241 16.5933 9.64309 16.3302 9.17662C16.3103 9.14229 16.2715 9.12453 16.2328 9.13045C14.1052 9.49748 12.0691 10.1404 10.1693 11.0141C10.1529 11.0212 10.1388 11.0331 10.1294 11.0484C6.26752 16.8273 5.20958 22.4641 5.72857 28.031C5.73092 28.0582 5.74618 28.0843 5.76732 28.1008C8.31529 29.975 10.7834 31.1128 13.2057 31.8669C13.2445 31.8788 13.2856 31.8646 13.3103 31.8326C13.8833 31.0489 14.394 30.2225 14.832 29.3534C14.8578 29.3025 14.8332 29.2422 14.7803 29.222C13.9702 28.9142 13.1987 28.5389 12.4566 28.1127C12.3979 28.0783 12.3932 27.9943 12.4472 27.954C12.6034 27.8368 12.7596 27.7148 12.9087 27.5917C12.9357 27.5692 12.9733 27.5645 13.005 27.5787C17.8802 29.8081 23.1581 29.8081 27.9758 27.5787C28.0075 27.5633 28.0451 27.5681 28.0732 27.5905C28.2224 27.7137 28.3785 27.8368 28.5359 27.954C28.5899 27.9943 28.5863 28.0783 28.5276 28.1127C27.7856 28.5472 27.0141 28.9142 26.2028 29.2208C26.1499 29.241 26.1264 29.3025 26.1523 29.3534C26.5996 30.2213 27.1104 31.0477 27.6728 31.8314C27.6963 31.8646 27.7386 31.8788 27.7773 31.8669C30.2114 31.1128 32.6795 29.975 35.2275 28.1008C35.2498 28.0843 35.2639 28.0594 35.2663 28.0322C35.8874 21.5962 34.2259 16.0056 30.8619 11.0496C30.8537 11.0331 30.8396 11.0212 30.8232 11.0141ZM15.56 24.6413C14.0922 24.6413 12.8829 23.2916 12.8829 21.6341C12.8829 19.9766 14.0688 18.6269 15.56 18.6269C17.0629 18.6269 18.2606 19.9884 18.2371 21.6341C18.2371 23.2916 17.0512 24.6413 15.56 24.6413ZM25.4583 24.6413C23.9906 24.6413 22.7812 23.2916 22.7812 21.6341C22.7812 19.9766 23.9671 18.6269 25.4583 18.6269C26.9613 18.6269 28.1589 19.9884 28.1355 21.6341C28.1355 23.2916 26.9613 24.6413 25.4583 24.6413Z" fill="white"/>
<rect x="10.7305" y="16.9766" width="19.5391" height="9.12891" fill="white"/>
<path d="M20.902 23.7111C20.7687 23.7367 20.6301 23.7521 20.4916 23.7624C18.6294 23.865 17.0494 22.408 16.9519 20.5356C16.9006 19.6224 17.2084 18.7503 17.8086 18.0732C18.4089 17.396 19.2297 17.001 20.1274 16.9548C20.189 16.9497 20.2454 16.9497 20.307 16.9497C22.0922 16.9497 23.5696 18.3707 23.6671 20.1816C23.6774 20.4176 23.6671 20.6484 23.6312 20.8742L24.8265 22.0335C24.9188 21.7719 24.9958 21.5052 25.0419 21.2333L26.1705 20.9973L26.1552 20.6792L26.1141 19.8789L26.0987 19.5609L25.0368 19.4531C24.9906 19.2069 24.9291 18.9709 24.8521 18.7401L25.7088 17.9757L25.5396 17.7089L25.1035 17.0369L24.9291 16.7702L23.9749 17.2011C23.8107 17.0061 23.6363 16.8317 23.4465 16.6624L23.7954 15.5954L23.5132 15.4517L22.8001 15.0875L22.518 14.9439L21.9229 15.7698C21.6818 15.6826 21.4304 15.621 21.1739 15.5697L20.9482 14.4873L20.6301 14.5027L19.8299 14.5489L19.5118 14.5643L19.4092 15.5749C19.1527 15.621 18.9013 15.6877 18.6602 15.7749L17.9318 14.9593L17.665 15.1337L16.993 15.5697L16.7262 15.7442L17.152 16.6881C17.0032 16.8215 16.8545 16.96 16.7211 17.1087C16.6852 17.1446 16.6544 17.1857 16.6236 17.2267L15.5463 16.8728L15.4027 17.1549L15.0384 17.868L14.8948 18.1501L15.7515 18.7657C15.6746 19.0017 15.613 19.2377 15.572 19.4788L14.4434 19.7148L14.4587 20.0328L14.4998 20.8331L14.5152 21.1461L15.5771 21.2538C15.6233 21.5 15.6848 21.736 15.7618 21.9669L14.9051 22.7312L15.0743 22.998L15.5104 23.67L15.6848 23.9368L16.639 23.5059C16.8032 23.7008 16.9776 23.8752 17.1725 24.0394L16.8237 25.1167L17.1058 25.2603L17.8189 25.6245L18.1011 25.7682L18.7013 24.9371C18.9424 25.0243 19.1886 25.091 19.4451 25.1372L19.6708 26.2196L19.9889 26.2042L20.7892 26.1632L21.1021 26.1427L21.2047 25.1321C21.492 25.0756 21.7741 24.9936 22.046 24.891L20.902 23.7111Z" fill="url(#paint1_linear_884_33)"/>
<path d="M26.5447 25.0141C26.5755 24.8243 26.4678 24.5781 26.36 24.4703C25.098 23.2494 23.8412 22.0285 22.5843 20.8075C22.7639 20.0431 22.5587 19.2121 21.9636 18.617C21.2813 17.9347 20.2758 17.7603 19.4345 18.104L20.7273 19.3968C20.835 19.5045 20.835 19.684 20.7273 19.7918L19.8295 20.6844C19.7218 20.7921 19.5422 20.7921 19.4345 20.6844L18.1418 19.3916C17.8032 20.2329 17.9725 21.2384 18.6548 21.9207C19.2498 22.5158 20.0809 22.721 20.8453 22.5415C22.0662 23.7983 23.2872 25.0603 24.5081 26.3171C24.6158 26.4249 24.8621 26.5326 25.0519 26.5018C25.8009 26.389 26.4267 25.7631 26.5447 25.0141Z" fill="url(#paint2_linear_884_33)"/>
</g>
<path d="M64.7957 11.5048V22.7366C64.7957 24.4754 64.3022 25.8147 63.3153 26.7546C62.3441 27.6945 61.0283 28.1645 59.3678 28.1645C57.629 28.1645 56.2348 27.671 55.1853 26.6841C54.1357 25.6973 53.6109 24.2952 53.6109 22.4781H57.6055C57.6055 23.1674 57.7465 23.6921 58.0284 24.0524C58.3104 24.3971 58.7177 24.5694 59.2503 24.5694C59.7359 24.5694 60.1119 24.4127 60.3782 24.0994C60.6445 23.7861 60.7776 23.3319 60.7776 22.7366V11.5048H64.7957ZM74.2211 11.5048C75.9599 11.5048 77.4794 11.8495 78.7796 12.5387C80.0797 13.228 81.0823 14.1992 81.7872 15.4524C82.5078 16.6899 82.8681 18.1233 82.8681 19.7524C82.8681 21.3659 82.5078 22.7992 81.7872 24.0524C81.0823 25.3056 80.0719 26.2769 78.7561 26.9661C77.4559 27.6554 75.9442 28 74.2211 28H68.0413V11.5048H74.2211ZM73.9626 24.5224C75.4821 24.5224 76.6648 24.1073 77.5107 23.277C78.3566 22.4468 78.7796 21.2719 78.7796 19.7524C78.7796 18.2329 78.3566 17.0502 77.5107 16.2043C76.6648 15.3584 75.4821 14.9355 73.9626 14.9355H72.0593V24.5224H73.9626ZM95.3819 25.0863H89.2256L88.2387 28H84.0327L90.001 11.5048H94.6535L100.622 28H96.3688L95.3819 25.0863ZM94.348 21.9847L92.3038 15.9458L90.283 21.9847H94.348ZM122.174 28H118.156L111.436 17.8256V28H107.418V11.5048H111.436L118.156 21.7262V11.5048H122.174V28ZM137.446 21.2328C137.446 21.6087 137.423 22.0003 137.376 22.4076H128.282C128.345 23.2222 128.603 23.8488 129.058 24.2874C129.528 24.7104 130.099 24.9218 130.773 24.9218C131.776 24.9218 132.473 24.4989 132.864 23.653H137.141C136.921 24.5146 136.522 25.29 135.942 25.9792C135.378 26.6685 134.666 27.2089 133.804 27.6005C132.943 27.9922 131.979 28.188 130.914 28.188C129.629 28.188 128.486 27.9138 127.483 27.3656C126.481 26.8173 125.698 26.0341 125.134 25.0158C124.57 23.9976 124.288 22.8071 124.288 21.4442C124.288 20.0814 124.562 18.8909 125.11 17.8726C125.674 16.8544 126.457 16.0712 127.46 15.5229C128.462 14.9746 129.614 14.7005 130.914 14.7005C132.183 14.7005 133.311 14.9668 134.298 15.4994C135.285 16.032 136.052 16.7918 136.6 17.7786C137.164 18.7655 137.446 19.9169 137.446 21.2328ZM133.334 20.1754C133.334 19.4861 133.099 18.9378 132.629 18.5306C132.159 18.1233 131.572 17.9196 130.867 17.9196C130.193 17.9196 129.622 18.1154 129.152 18.5071C128.697 18.8987 128.415 19.4548 128.306 20.1754H133.334ZM158.387 14.8885L154.839 28H150.398L148.33 19.494L146.192 28H141.775L138.203 14.8885H142.221L144.077 24.2639L146.286 14.8885H150.539L152.771 24.2169L154.604 14.8885H158.387ZM167.227 24.5929V28H165.183C163.726 28 162.591 27.6475 161.776 26.9426C160.961 26.222 160.554 25.055 160.554 23.4415V18.2251H158.956V14.8885H160.554V11.6928H164.572V14.8885H167.204V18.2251H164.572V23.4885C164.572 23.8801 164.666 24.1621 164.854 24.3344C165.042 24.5067 165.355 24.5929 165.794 24.5929H167.227ZM171.486 13.5256C170.781 13.5256 170.202 13.322 169.747 12.9147C169.309 12.4917 169.09 11.9748 169.09 11.3639C169.09 10.7373 169.309 10.2203 169.747 9.81303C170.202 9.39008 170.781 9.1786 171.486 9.1786C172.175 9.1786 172.739 9.39008 173.178 9.81303C173.632 10.2203 173.859 10.7373 173.859 11.3639C173.859 11.9748 173.632 12.4917 173.178 12.9147C172.739 13.322 172.175 13.5256 171.486 13.5256ZM173.484 14.8885V28H169.465V14.8885H173.484ZM180.413 10.6119V28H176.395V10.6119H180.413ZM188.659 28.188C187.516 28.188 186.497 27.9922 185.604 27.6005C184.712 27.2089 184.007 26.6763 183.49 26.0027C182.973 25.3135 182.683 24.5459 182.62 23.7H186.591C186.638 24.1543 186.85 24.5224 187.226 24.8044C187.602 25.0863 188.064 25.2273 188.612 25.2273C189.113 25.2273 189.497 25.1333 189.764 24.9453C190.045 24.7417 190.186 24.4832 190.186 24.1699C190.186 23.794 189.991 23.5198 189.599 23.3475C189.207 23.1595 188.573 22.9559 187.696 22.7366C186.756 22.5173 185.973 22.2901 185.346 22.0552C184.719 21.8045 184.179 21.4207 183.725 20.9038C183.27 20.3712 183.043 19.6584 183.043 18.7655C183.043 18.0136 183.247 17.3322 183.654 16.7213C184.077 16.0947 184.688 15.6012 185.487 15.2409C186.302 14.8806 187.265 14.7005 188.377 14.7005C190.022 14.7005 191.314 15.1078 192.254 15.9224C193.21 16.7369 193.758 17.8178 193.899 19.165H190.186C190.124 18.7107 189.92 18.3504 189.576 18.0841C189.247 17.8178 188.808 17.6847 188.26 17.6847C187.79 17.6847 187.429 17.7786 187.179 17.9666C186.928 18.1389 186.803 18.3817 186.803 18.695C186.803 19.071 186.999 19.353 187.39 19.5409C187.798 19.7289 188.424 19.9169 189.27 20.1049C190.241 20.3555 191.032 20.6062 191.643 20.8568C192.254 21.0918 192.787 21.4834 193.241 22.0317C193.711 22.5643 193.954 23.2849 193.97 24.1934C193.97 24.961 193.75 25.6503 193.312 26.2612C192.889 26.8565 192.27 27.3264 191.455 27.671C190.656 28.0157 189.724 28.188 188.659 28.188Z" fill="url(#paint3_linear_884_33)"/>
<defs>
<linearGradient id="paint0_linear_884_33" x1="0" y1="0" x2="41" y2="42.041" gradientUnits="userSpaceOnUse">
<stop stop-color="#9A4BDC"/>
<stop offset="1" stop-color="#5726BA"/>
</linearGradient>
<linearGradient id="paint1_linear_884_33" x1="0.68269" y1="0.424332" x2="40.0774" y2="39.7509" gradientUnits="userSpaceOnUse">
<stop stop-color="#9A4BDC"/>
<stop offset="1" stop-color="#5625BA"/>
</linearGradient>
<linearGradient id="paint2_linear_884_33" x1="7.90796" y1="7.65473" x2="36.6995" y2="36.4186" gradientUnits="userSpaceOnUse">
<stop stop-color="#9A4BDC"/>
<stop offset="1" stop-color="#5625BA"/>
</linearGradient>
<linearGradient id="paint3_linear_884_33" x1="54" y1="10" x2="195" y2="28" gradientUnits="userSpaceOnUse">
<stop stop-color="#9348D8"/>
<stop offset="1" stop-color="#5F2BBE"/>
</linearGradient>
<clipPath id="clip0_884_33">
<rect width="41" height="41" fill="white"/>
</clipPath>
</defs>
</svg>
